<svg xmlns="http://www.w3.org/2000/svg" viewBox="0 0 64 64" role="img" aria-label="Xbox">
  <rect width="64" height="64" rx="14" fill="#0b1220"/>
  <circle cx="32" cy="32" r="19.5" fill="none" stroke="#107C10" stroke-width="4"/>
  <path d="M22 18.8c2.7 1 5.8 2.8 10 6 4.2-3.2 7.3-5 10-6 2.3.8 4.4 2.2 6 4.1-3.4 1.6-7.7 4.8-12.7 9.5 4.8 4.6 8.2 8.8 10.1 12.6a19 19 0 0 1-4.5 3.5c-1.9-3.9-4.9-8-8.9-12.2-4 4.2-7 8.3-8.9 12.2a19.1 19.1 0 0 1-4.5-3.5c1.9-3.8 5.3-8 10.1-12.6-5-4.7-9.3-7.9-12.7-9.5a18.2 18.2 0 0 1 6-4.1Z" fill="#107C10"/>
</svg>
